<svg width="18" height="18" viewBox="0 0 18 18" fill="none" xmlns="http://www.w3.org/2000/svg">
  <path fill-rule="evenodd" clip-rule="evenodd" d="M2.26775 3.7683C2.26775 4.59579 2.94069 5.26874 3.76818 5.26874C4.59567 5.26874 5.26861 4.59579 5.26861 3.7683C5.26861 2.94081 4.59567 2.26787 3.76818 2.26787C2.94069 2.26787 2.26775 2.94081 2.26775 3.7683ZM3.01796 3.7683C3.01796 3.35418 3.35481 3.01809 3.76818 3.01809C4.18155 3.01809 4.5184 3.35418 4.5184 3.7683C4.5184 4.18242 4.18155 4.51852 3.76818 4.51852C3.35481 4.51852 3.01796 4.18242 3.01796 3.7683Z" fill="#454646"/>
  <path fill-rule="evenodd" clip-rule="evenodd" d="M9.1129 17.4666C9.47601 17.8229 9.95089 18 10.4258 18C10.9067 18 11.3876 17.8177 11.7514 17.4538L17.4531 11.7514C18.177 11.0274 18.183 9.84435 17.4666 9.11289L9.08964 0.563413C8.73854 0.204809 8.25015 0 7.74825 0H7.7445L1.13809 0.0157546C0.520659 0.0165048 0.0172632 0.520651 0.0157628 1.13808L8.18668e-06 7.74524C-0.00149225 8.24714 0.203317 8.73628 0.562671 9.08963L9.1129 17.4666ZM7.74675 0.750217H7.74825C8.04984 0.750217 8.34318 0.873253 8.55324 1.08782L16.9309 9.63729C17.36 10.0762 17.357 10.7859 16.9227 11.2203L11.221 16.9227C10.7866 17.3563 10.0762 17.36 9.63805 16.9302L1.08857 8.55398C0.872511 8.34242 0.749475 8.04758 0.750226 7.74675L0.76598 1.13958C0.76598 0.934021 0.934029 0.766722 1.13959 0.765972L7.74675 0.750217Z" fill="#454646"/>
</svg>
